<?xml version="1.0" encoding="iso-8859-1"?>
<!-- Generator: Adobe Illustrator 19.0.0, SVG Export Plug-In . SVG Version: 6.00 Build 0)  -->
<svg version="1.1" id="Capa_1" xmlns="http://www.w3.org/2000/svg" xmlns:xlink="http://www.w3.org/1999/xlink" x="0px" y="0px"
	 viewBox="0 0 512 512" style="enable-background:new 0 0 512 512;" xml:space="preserve">
<path style="fill:#5C5E70;" d="M512,256c0,19.508-2.184,38.494-6.311,56.738c-6.416,28.348-17.533,54.909-32.496,78.817
	c-0.637,1.024-1.285,2.048-1.943,3.072C425.681,465.251,346.3,512,256,512S86.319,465.251,40.751,394.627
	c-19.822-30.699-33.249-65.912-38.4-103.769c-1.191-8.735-1.933-17.617-2.215-26.624C0.042,261.496,0,258.759,0,256
	c0-24.9,3.553-48.964,10.177-71.722c2.654-9.101,5.799-17.993,9.415-26.645c5.862-14.106,12.967-27.564,21.159-40.26
	C86.319,46.749,165.7,0,256,0s169.681,46.749,215.249,117.373c10.365,16.06,18.986,33.353,25.59,51.618
	c3.124,8.673,5.81,17.565,8.004,26.645c2.111,8.714,3.772,17.607,4.953,26.645c1.16,8.746,1.86,17.638,2.111,26.645
	C511.969,251.277,512,253.628,512,256z"/>
<path style="fill:#F9EED7;" d="M471.249,127.76v266.867C425.681,465.251,346.3,512,256,512S86.319,465.251,40.751,394.627V22.8
	c0-12.591,10.209-22.8,22.8-22.8h279.939L471.249,127.76z"/>
<path style="fill:#E8DBC4;" d="M343.489,104.958V0l127.76,127.76H366.291C353.698,127.76,343.489,117.551,343.489,104.958z"/>
<g>
	<path style="fill:#FF525D;" d="M471.249,330.961v63.666C425.681,465.251,346.3,512,256,512S86.319,465.251,40.751,394.627v-63.666
		L471.249,330.961L471.249,330.961z"/>
	<path style="fill:#FF525D;" d="M150.505,189.965l43.046-27.963c0.847-0.678,2.033-0.848,3.219-0.848
		c5.084,0,11.524,5.424,11.524,12.372c0,2.881-1.186,5.422-3.051,6.609l-29.827,19.319l29.827,19.32
		c1.864,1.186,3.051,3.728,3.051,6.609c0,6.949-6.44,12.371-11.524,12.371c-1.186,0-2.373-0.169-3.219-0.847l-43.046-27.963
		c-3.897-2.542-5.253-6.609-5.253-9.491C145.251,196.574,146.608,192.507,150.505,189.965z"/>
	<path style="fill:#FF525D;" d="M294.722,124.55c0,1.018-0.169,2.203-0.678,3.219L234.39,249.955
		c-1.186,2.542-4.406,4.236-7.626,4.236c-5.762,0-9.489-4.745-9.489-8.982c0-1.016,0.339-2.203,0.847-3.219l59.483-122.185
		c1.355-2.882,4.067-4.237,7.118-4.237C289.469,115.568,294.722,119.127,294.722,124.55z"/>
	<path style="fill:#FF525D;" d="M361.495,208.944l-43.044,27.963c-0.848,0.678-2.034,0.847-3.219,0.847
		c-5.084,0-11.524-5.422-11.524-12.371c0-2.881,1.185-5.422,3.049-6.609l29.827-19.32l-29.827-19.319
		c-1.864-1.186-3.049-3.728-3.049-6.609c0-6.949,6.44-12.372,11.524-12.372c1.185,0,2.372,0.17,3.219,0.848l43.044,27.963
		c3.897,2.542,5.253,6.609,5.253,9.489C366.749,202.335,365.392,206.402,361.495,208.944z"/>
</g>
<g>
	<path style="fill:#F9EED7;" d="M162.671,414.688h-23.71v32.288c0,3.813-4.647,5.72-9.294,5.72s-9.294-1.906-9.294-5.72v-75.778
		c0-3.932,4.647-5.6,9.294-5.6c4.648,0,9.294,1.668,9.294,5.6v29.191h23.71v-29.191c0-3.932,4.647-5.6,9.294-5.6
		s9.294,1.668,9.294,5.6v75.778c0,3.813-4.647,5.72-9.294,5.72s-9.294-1.906-9.294-5.72V414.688z"/>
	<path style="fill:#F9EED7;" d="M251.675,365.598c3.932,0,5.6,4.289,5.6,8.221c0,4.528-2.025,8.46-5.6,8.46h-16.443v64.697
		c0,3.813-4.647,5.72-9.294,5.72c-4.646,0-9.293-1.906-9.293-5.72v-64.697h-16.443c-3.575,0-5.6-3.932-5.6-8.46
		c0-3.932,1.669-8.221,5.6-8.221H251.675z"/>
	<path style="fill:#F9EED7;" d="M312.559,421.836c-1.549,2.622-3.932,3.455-6.196,3.455c-2.145,0-4.408-0.715-5.838-3.455
		l-11.319-20.732v45.872c0,3.813-4.647,5.72-9.294,5.72s-9.294-1.906-9.294-5.72v-72.084c0-6.792,4.647-9.293,9.294-9.293
		c6.673,0,9.532,0.715,14.418,9.293l12.272,21.447l12.271-21.447c4.886-8.579,7.745-9.293,14.418-9.293
		c4.767,0,9.294,2.503,9.294,9.293v72.084c0,3.813-4.647,5.72-9.294,5.72s-9.294-1.906-9.294-5.72v-44.681L312.559,421.836z"/>
	<path style="fill:#F9EED7;" d="M369.511,452.696c-4.051,0-8.102-1.906-8.102-5.72v-75.778c0-3.932,4.647-5.6,9.294-5.6
		s9.294,1.668,9.294,5.6v65.294h27.165c3.575,0,5.362,4.051,5.362,8.102s-1.788,8.102-5.362,8.102H369.511z"/>
</g>
<g>
</g>
<g>
</g>
<g>
</g>
<g>
</g>
<g>
</g>
<g>
</g>
<g>
</g>
<g>
</g>
<g>
</g>
<g>
</g>
<g>
</g>
<g>
</g>
<g>
</g>
<g>
</g>
<g>
</g>
</svg>
